<svg width="16" height="15" viewBox="0 0 16 15" fill="none" xmlns="http://www.w3.org/2000/svg">
<path d="M15.0497 5.46361C14.9503 5.15808 14.6793 4.94176 14.36 4.91287L10.0042 4.51742L8.28275 0.4872C8.15565 0.191104 7.86647 0 7.54458 0C7.2227 0 6.93339 0.191104 6.80711 0.4872L5.08567 4.51742L0.729197 4.91287C0.409846 4.94234 0.139423 5.15865 0.0394963 5.46361C-0.0598547 5.76915 0.0318981 6.10427 0.273426 6.3161L3.56605 9.20326L2.59522 13.4792C2.52419 13.7936 2.64622 14.1187 2.90709 14.3072C3.04731 14.4091 3.21205 14.46 3.37737 14.46C3.51943 14.46 3.6616 14.4222 3.78859 14.3463L7.54458 12.1004L11.2999 14.3463C11.5754 14.5109 11.9218 14.4958 12.1821 14.3072C12.4429 14.1187 12.565 13.7936 12.4939 13.4792L11.5231 9.20326L14.8157 6.3161C15.0572 6.10427 15.149 5.76984 15.0497 5.46361Z" fill="#F9E492"/>
</svg>
