<svg width="32" height="32" viewBox="0 0 32 32" fill="none" xmlns="http://www.w3.org/2000/svg">
<path d="M14.442 7.9939H11.642C10.7583 7.9939 10.042 8.71024 10.042 9.5939V20.4139C10.042 21.2976 10.7583 22.0139 11.642 22.0139H14.442C15.3256 22.0139 16.042 21.2976 16.042 20.4139V9.5939C16.042 8.71024 15.3256 7.9939 14.442 7.9939Z" fill="#FFC0EC"/>
<path d="M22.1979 12.864H19.3979C18.5142 12.864 17.7979 13.5804 17.7979 14.464V20.414C17.7979 21.2977 18.5142 22.014 19.3979 22.014H22.1979C23.0815 22.014 23.7979 21.2977 23.7979 20.414V14.464C23.7979 13.5804 23.0815 12.864 22.1979 12.864Z" fill="#FFC0EC"/>
<path d="M25.7062 23.89H8.0882V6.29995C8.0882 5.41595 7.3722 4.69995 6.4882 4.69995H6.3002C5.4162 4.69995 4.7002 5.41595 4.7002 6.29995V25.7C4.7002 26.584 5.4162 27.3 6.3002 27.3H6.4882C6.5742 27.3 6.6582 27.292 6.7422 27.278H25.7062C26.5902 27.278 27.3062 26.562 27.3062 25.678V25.49C27.3062 24.606 26.5902 23.89 25.7062 23.89Z" fill="#886CFF"/>
</svg>
