<svg width="41" height="45" viewBox="0 0 41 45" fill="none" xmlns="http://www.w3.org/2000/svg">
<path d="M32.176 17.4514L36.5151 19.7987L37.4235 20.3091C39.3588 21.3964 39.3588 24.1996 37.4235 25.2869L25.0988 32.2113C22.2404 33.8172 18.7596 33.8172 15.9012 32.2113L3.57647 25.2869C1.64117 24.1996 1.64118 21.3964 3.57648 20.3091L4.48486 19.7987L8.58349 17.4514M33.1197 27.9023L37.0639 29.8878C39.098 30.9117 39.1633 33.8103 37.1774 34.926L25.0988 41.7121C22.2404 43.3181 18.7596 43.3181 15.9012 41.7121L3.99884 35.025C1.97881 33.8901 2.09011 30.9274 4.18952 29.9494L8.58349 27.9023M25.0988 22.1144L37.4235 15.19C39.3588 14.1026 39.3588 11.2994 37.4235 10.2121L25.0988 3.28769C22.2404 1.68177 18.7596 1.68177 15.9012 3.28769L3.57648 10.2121C1.64118 11.2994 1.64117 14.1026 3.57647 15.1899L15.9012 22.1144C18.7596 23.7203 22.2404 23.7203 25.0988 22.1144Z" stroke="#4F77FF" stroke-width="3.0625"/>
</svg>
