<svg width="45" height="45" viewBox="0 0 45 45" fill="none" xmlns="http://www.w3.org/2000/svg">
<path d="M36.1323 23.6852L34.9867 22.6227L36.1323 23.6852ZM21.4009 8.95382L22.4634 10.0994L21.4009 8.95382ZM43.1268 5.90067L44.6761 6.1033L43.1268 5.90067ZM39.1854 1.9593L39.3881 3.5086L39.1854 1.9593ZM11.5299 23.3554L12.9328 24.0432L11.5299 23.3554ZM21.7307 33.5563L21.0429 32.1533L21.7307 33.5563ZM15.1401 18.1609C14.5299 17.5507 13.5406 17.5507 12.9304 18.1609C12.3202 18.771 12.3202 19.7604 12.9304 20.3706L15.1401 18.1609ZM24.7155 32.1557C25.3257 32.7659 26.3151 32.7659 26.9253 32.1557C27.5354 31.5455 27.5354 30.5562 26.9253 29.946L24.7155 32.1557ZM11.4573 35.8385C12.0675 35.2283 12.0675 34.239 11.4573 33.6288C10.8471 33.0186 9.85778 33.0186 9.24759 33.6288L11.4573 35.8385ZM3.35503 39.5214C2.74484 40.1316 2.74484 41.1209 3.35503 41.7311C3.96522 42.3413 4.95454 42.3413 5.56474 41.7311L3.35503 39.5214ZM7.03788 31.4191C7.64807 30.8089 7.64807 29.8196 7.03788 29.2094C6.42768 28.5992 5.43836 28.5992 4.82817 29.2094L7.03788 31.4191ZM1.88189 32.1557C1.27169 32.7659 1.27169 33.7552 1.88189 34.3654C2.49208 34.9756 3.4814 34.9756 4.0916 34.3654L1.88189 32.1557ZM15.8767 40.2579C16.4869 39.6477 16.4869 38.6584 15.8767 38.0482C15.2665 37.438 14.2772 37.438 13.667 38.0482L15.8767 40.2579ZM10.7207 40.9945C10.1105 41.6047 10.1105 42.594 10.7207 43.2042C11.3309 43.8144 12.3202 43.8144 12.9304 43.2042L10.7207 40.9945ZM20.0752 40.9208L21.622 40.6999L20.0752 40.9208ZM30.8291 33.7025L32.3759 33.4815L30.8291 33.7025ZM4.16521 25.011L4.38618 23.4642L4.38618 23.4642L4.16521 25.011ZM11.3836 14.2571L11.1626 15.8039L11.1626 15.8039L11.3836 14.2571ZM18.3129 31.6458L13.4403 26.7732L11.2306 28.9829L16.1032 33.8555L18.3129 31.6458ZM34.9867 22.6227C31.0416 26.8763 24.636 30.3918 21.0429 32.1533L22.4185 34.9592C26.044 33.1818 32.9099 29.4574 37.2779 24.7477L34.9867 22.6227ZM12.9328 24.0432C14.6944 20.4501 18.2098 14.0445 22.4634 10.0994L20.3384 7.8082C15.6288 12.1762 11.9043 19.0422 10.1269 22.6676L12.9328 24.0432ZM41.5775 5.69804C40.9445 10.5383 39.2625 18.0124 34.9867 22.6227L37.2779 24.7477C42.2686 19.3668 44.0334 11.0179 44.6761 6.1033L41.5775 5.69804ZM22.4634 10.0994C27.0737 5.82357 34.5478 4.14165 39.3881 3.5086L38.9828 0.409991C34.0682 1.05276 25.7193 2.81756 20.3384 7.8082L22.4634 10.0994ZM44.6761 6.1033C45.1159 2.74106 42.3451 -0.0297471 38.9828 0.409991L39.3881 3.5086C40.7151 3.33505 41.7511 4.37104 41.5775 5.69804L44.6761 6.1033ZM13.4403 26.7732C12.6837 26.0165 12.4988 24.9285 12.9328 24.0432L10.1269 22.6676C9.06815 24.8272 9.58939 27.3416 11.2306 28.9829L13.4403 26.7732ZM16.1032 33.8555C17.7445 35.4967 20.2589 36.018 22.4185 34.9592L21.0429 32.1533C20.1576 32.5873 19.0696 32.4024 18.3129 31.6458L16.1032 33.8555ZM12.9304 20.3706L24.7155 32.1557L26.9253 29.946L15.1401 18.1609L12.9304 20.3706ZM9.24759 33.6288L3.35503 39.5214L5.56474 41.7311L11.4573 35.8385L9.24759 33.6288ZM4.82817 29.2094L1.88189 32.1557L4.0916 34.3654L7.03788 31.4191L4.82817 29.2094ZM13.667 38.0482L10.7207 40.9945L12.9304 43.2042L15.8767 40.2579L13.667 38.0482ZM25.4521 11.5317C23.2147 13.7691 23.2147 17.3966 25.4521 19.634L27.6618 17.4243C26.6448 16.4073 26.6448 14.7584 27.6618 13.7414L25.4521 11.5317ZM25.4521 19.634C27.6895 21.8714 31.317 21.8714 33.5544 19.634L31.3447 17.4243C30.3277 18.4413 28.6788 18.4413 27.6618 17.4243L25.4521 19.634ZM33.5544 19.634C35.7918 17.3966 35.7918 13.7691 33.5544 11.5317L31.3447 13.7414C32.3617 14.7584 32.3617 16.4073 31.3447 17.4243L33.5544 19.634ZM33.5544 11.5317C31.317 9.29435 27.6895 9.29435 25.4521 11.5317L27.6618 13.7414C28.6788 12.7244 30.3277 12.7244 31.3447 13.7414L33.5544 11.5317ZM29.135 34.3654L22.5058 40.9945L24.7155 43.2042L31.3447 36.5751L29.135 34.3654ZM21.622 40.6999L20.7381 34.5127L17.6445 34.9546L18.5284 41.1418L21.622 40.6999ZM28.693 29.7987L29.2823 33.9234L32.3759 33.4815L31.7866 29.3567L28.693 29.7987ZM22.5058 40.9945C22.2024 41.298 21.6827 41.1248 21.622 40.6999L18.5284 41.1418C18.9532 44.116 22.5912 45.3286 24.7155 43.2042L22.5058 40.9945ZM31.3447 36.5751C32.1561 35.7636 32.5382 34.6175 32.3759 33.4815L29.2823 33.9234C29.3055 34.0857 29.2509 34.2495 29.135 34.3654L31.3447 36.5751ZM8.51097 13.7415L1.88185 20.3706L4.09155 22.5803L10.7207 15.9512L8.51097 13.7415ZM3.94424 26.5578L10.1314 27.4417L10.5734 24.3481L4.38618 23.4642L3.94424 26.5578ZM15.7294 13.2995L11.6046 12.7103L11.1626 15.8039L15.2874 16.3931L15.7294 13.2995ZM1.88185 20.3706C-0.242539 22.495 0.970105 26.1329 3.94424 26.5578L4.38618 23.4642C3.9613 23.4035 3.78807 22.8838 4.09155 22.5803L1.88185 20.3706ZM10.7207 15.9512C10.8366 15.8353 11.0003 15.7807 11.1626 15.8039L11.6046 12.7103C10.4685 12.548 9.32241 12.93 8.51097 13.7415L10.7207 15.9512Z" fill="#4F77FF"/>
</svg>
