<svg width="8" height="7" viewBox="0 0 8 7" fill="none" xmlns="http://www.w3.org/2000/svg">
<path fill-rule="evenodd" clip-rule="evenodd" d="M3.42221 3.80113C4.35991 3.80113 5.11156 3.03975 5.11156 2.08992C5.11156 1.14009 4.35991 0.378708 3.42221 0.378708C2.48451 0.378708 1.73286 1.14009 1.73286 2.08992C1.73286 3.03975 2.48451 3.80113 3.42221 3.80113ZM3.42176 4.63852C2.04452 4.63852 0.868652 4.85872 0.868652 5.73848C0.868652 6.6179 2.03737 6.84604 3.42176 6.84604C4.79867 6.84604 5.97488 6.62584 5.97488 5.74608C5.97488 4.86631 4.80616 4.63852 3.42176 4.63852ZM6.96215 2.79281H7.3717C7.54028 2.79281 7.67772 2.93219 7.67772 3.10314C7.67772 3.27408 7.54028 3.41346 7.3717 3.41346H6.96215V3.81423C6.96215 3.98518 6.82505 4.12456 6.65613 4.12456C6.48755 4.12456 6.35011 3.98518 6.35011 3.81423V3.41346H5.94126C5.77233 3.41346 5.63523 3.27408 5.63523 3.10314C5.63523 2.93219 5.77233 2.79281 5.94126 2.79281H6.35011V2.3924C6.35011 2.22145 6.48755 2.08207 6.65613 2.08207C6.82505 2.08207 6.96215 2.22145 6.96215 2.3924V2.79281Z" fill="white"/>
</svg>
