<svg width="12" height="11" viewBox="0 0 12 11" fill="none" xmlns="http://www.w3.org/2000/svg">
<path fill-rule="evenodd" clip-rule="evenodd" d="M1.77303 8.72016C1.69702 8.62137 1.7155 8.47967 1.81429 8.40366L5.39196 5.65128C5.49075 5.57528 5.63246 5.59375 5.70846 5.69255C5.78447 5.79134 5.76599 5.93304 5.6672 6.00905L2.08953 8.76143C1.99073 8.83743 1.84903 8.81896 1.77303 8.72016Z" fill="white"/>
<path fill-rule="evenodd" clip-rule="evenodd" d="M5.16055 8.60075C5.03698 8.58438 4.95008 8.47094 4.96645 8.34737L5.27414 6.0249L2.9506 5.72705C2.82696 5.7112 2.73958 5.59813 2.75543 5.47449C2.77128 5.35086 2.88435 5.26348 3.00799 5.27932L5.55634 5.60599C5.61588 5.61362 5.66992 5.64465 5.70652 5.69223C5.74312 5.7398 5.75927 5.79999 5.75138 5.85949L5.41393 8.40665C5.39756 8.53022 5.28412 8.61712 5.16055 8.60075Z" fill="white"/>
<path fill-rule="evenodd" clip-rule="evenodd" d="M9.83381 2.12036C9.91596 2.21411 9.90656 2.3567 9.81282 2.43885L6.41802 5.41386C6.32427 5.49601 6.18168 5.48661 6.09953 5.39287C6.01738 5.29912 6.02677 5.15653 6.12052 5.07438L9.51532 2.09937C9.60906 2.01722 9.75166 2.02662 9.83381 2.12036Z" fill="white"/>
<path fill-rule="evenodd" clip-rule="evenodd" d="M6.4616 2.45498C6.58596 2.46343 6.67993 2.5711 6.67147 2.69546L6.51257 5.03283L8.85037 5.18185C8.97477 5.18978 9.06918 5.29705 9.06125 5.42144C9.05332 5.54584 8.94605 5.64025 8.82166 5.63232L6.25766 5.46889C6.19776 5.46507 6.14185 5.43755 6.10228 5.39241C6.06272 5.34727 6.04277 5.28823 6.04684 5.22834L6.22112 2.66485C6.22957 2.54048 6.33724 2.44652 6.4616 2.45498Z" fill="white"/>
</svg>
