<svg width="8" height="8" viewBox="0 0 8 8" fill="none" xmlns="http://www.w3.org/2000/svg">
<path d="M4.79206 2.3237H4.51383L4.2356 2.04547H3.12269L2.84446 2.3237H2.56623C2.26017 2.3237 2.00977 2.5741 2.00977 2.88016V4.54953C2.00977 4.85559 2.26017 5.10599 2.56623 5.10599H4.79206C5.09812 5.10599 5.34852 4.85559 5.34852 4.54953V2.88016C5.34852 2.5741 5.09812 2.3237 4.79206 2.3237ZM3.67914 4.2713C3.37309 4.2713 3.12269 4.0209 3.12269 3.71484C3.12269 3.40879 3.37309 3.15838 3.67914 3.15838C3.9852 3.15838 4.2356 3.40879 4.2356 3.71484C4.2356 4.0209 3.9852 4.2713 3.67914 4.2713Z" fill="white"/>
<path d="M2.72476 0.516837L3.97123 1.76331V0.942528C5.28448 1.0733 6.33062 2.11944 6.46139 3.43269H7.01785C6.83422 1.21519 4.65011 -0.0674459 2.72476 0.516837ZM3.38695 6.48487C2.0737 6.3541 1.02756 5.30795 0.896792 3.99471H0.340332C0.523964 6.2122 2.70807 7.49484 4.63342 6.91056L3.38695 5.66409V6.48487Z" fill="white"/>
</svg>
