<svg width="7" height="6" viewBox="0 0 7 6" fill="none" xmlns="http://www.w3.org/2000/svg">
<path d="M4.72974 1.89139C4.72974 1.6171 4.62078 1.35404 4.42683 1.16009C4.23287 0.966139 3.96982 0.857178 3.69553 0.857178H1.21341C0.939123 0.857178 0.676066 0.966139 0.482114 1.16009C0.288161 1.35404 0.179199 1.6171 0.179199 1.89139V4.78719C0.179199 5.06148 0.288161 5.32454 0.482114 5.51849C0.676066 5.71244 0.939123 5.82141 1.21341 5.82141H3.69553C3.96982 5.82141 4.23287 5.71244 4.42683 5.51849C4.62078 5.32454 4.72974 5.06148 4.72974 4.78719V1.89139Z" fill="white"/>
<path d="M5.146 2.48235V4.19997L6.28942 5.17213C6.33456 5.21054 6.38976 5.23521 6.44848 5.24323C6.5072 5.25125 6.567 5.24229 6.62078 5.2174C6.67457 5.1925 6.7201 5.15273 6.75199 5.10277C6.78388 5.05282 6.8008 4.99477 6.80074 4.9355V1.76378C6.80064 1.70486 6.78376 1.64718 6.75209 1.5975C6.72041 1.54782 6.67524 1.50819 6.62187 1.48324C6.56849 1.45828 6.50912 1.44905 6.45068 1.4566C6.39225 1.46416 6.33718 1.4882 6.29191 1.52591L5.146 2.48235Z" fill="white"/>
</svg>
