<svg width="5" height="8" viewBox="0 0 5 8" fill="none" xmlns="http://www.w3.org/2000/svg">
<path d="M2.57348 0.86615C2.8368 0.86615 3.08933 0.976258 3.27552 1.17225C3.46172 1.36825 3.56632 1.63407 3.56632 1.91125V4.00145C3.56632 4.27863 3.46172 4.54446 3.27552 4.74045C3.08933 4.93644 2.8368 5.04655 2.57348 5.04655C2.31016 5.04655 2.05762 4.93644 1.87143 4.74045C1.68523 4.54446 1.58063 4.27863 1.58063 4.00145V1.91125C1.58063 1.63407 1.68523 1.36825 1.87143 1.17225C2.05762 0.976258 2.31016 0.86615 2.57348 0.86615ZM4.89012 4.00145C4.89012 5.23119 4.02634 6.24493 2.90442 6.41563V7.48512H2.24253V6.41563C1.12061 6.24493 0.256836 5.23119 0.256836 4.00145H0.918733C0.918733 4.46342 1.09307 4.90646 1.4034 5.23311C1.71372 5.55977 2.13461 5.74329 2.57348 5.74329C3.01234 5.74329 3.43323 5.55977 3.74356 5.23311C4.05388 4.90646 4.22822 4.46342 4.22822 4.00145H4.89012Z" fill="white"/>
</svg>
