<svg width="8" height="8" viewBox="0 0 8 8" fill="none" xmlns="http://www.w3.org/2000/svg">
<path d="M1.54824 1.52835L1.8879 1.41976C2.20673 1.31811 2.5467 1.48258 2.68339 1.80393L2.95455 2.44411C3.07261 2.72285 3.00727 3.05083 2.7923 3.25475L2.19442 3.82233C2.23103 4.16199 2.34531 4.49629 2.5366 4.82521C2.71836 5.14348 2.96213 5.42203 3.25349 5.64438L3.97164 5.40447C4.24406 5.31387 4.54048 5.41836 4.70715 5.66364L5.09637 6.235C5.29051 6.52037 5.25579 6.91369 5.01493 7.15549L4.75671 7.41466C4.49976 7.67256 4.13263 7.76632 3.79329 7.66025C2.9918 7.41024 2.25502 6.6681 1.58265 5.43383C0.90932 4.19766 0.67162 3.14837 0.869861 2.28722C0.953198 1.92483 1.2111 1.63599 1.54824 1.52835Z" fill="white"/>
<path d="M4.54427 0.925598C4.58076 0.889092 4.63023 0.868584 4.68182 0.868584C4.73342 0.868584 4.78289 0.889092 4.81938 0.925598L5.84919 1.9563L6.87901 0.925598C6.89696 0.907 6.91843 0.892165 6.94216 0.881959C6.9659 0.871754 6.99143 0.866382 7.01726 0.866157C7.0431 0.865933 7.06872 0.87086 7.09263 0.880651C7.11654 0.890442 7.13826 0.904901 7.15653 0.923185C7.1748 0.941468 7.18924 0.96321 7.19903 0.987142C7.20881 1.01107 7.21373 1.03672 7.21351 1.06257C7.21328 1.08843 7.20792 1.11398 7.19772 1.13774C7.18752 1.1615 7.1727 1.18298 7.15412 1.20095L6.1243 2.23165L7.15412 3.26235C7.18956 3.29908 7.20917 3.34827 7.20873 3.39932C7.20828 3.45038 7.18782 3.49922 7.15175 3.53533C7.11568 3.57143 7.06688 3.59191 7.01586 3.59235C6.96485 3.5928 6.9157 3.57317 6.87901 3.5377L5.84919 2.507L4.81938 3.5377C4.78269 3.57317 4.73354 3.5928 4.68252 3.59235C4.63151 3.59191 4.58271 3.57143 4.54664 3.53533C4.51057 3.49922 4.4901 3.45038 4.48966 3.39932C4.48922 3.34827 4.50883 3.29908 4.54427 3.26235L5.57408 2.23165L4.54427 1.20095C4.5078 1.16443 4.4873 1.11491 4.4873 1.06327C4.4873 1.01164 4.5078 0.962116 4.54427 0.925598Z" fill="white"/>
</svg>
