<svg width="8" height="7" viewBox="0 0 8 7" fill="none" xmlns="http://www.w3.org/2000/svg">
<path d="M0.72168 1.21453C0.72168 0.944281 0.832687 0.685101 1.03028 0.494007C1.22788 0.302912 1.49587 0.195557 1.77531 0.195557H6.15194C6.2903 0.195557 6.42731 0.221913 6.55515 0.273121C6.68298 0.32433 6.79913 0.399387 6.89697 0.494007C6.99481 0.588627 7.07242 0.700958 7.12537 0.824586C7.17832 0.948213 7.20557 1.08072 7.20557 1.21453V3.01733H7.12193C7.10105 2.71059 6.95645 2.42405 6.71928 2.21939V1.21453C6.71928 1.06901 6.6595 0.929453 6.55311 0.826556C6.44671 0.723659 6.30241 0.665852 6.15194 0.665852H1.77531C1.62484 0.665852 1.48054 0.723659 1.37414 0.826556C1.26774 0.929453 1.20797 1.06901 1.20797 1.21453V4.19307C1.20797 4.49594 1.46214 4.74174 1.77531 4.74174H3.96362V4.89851C3.96362 5.00511 3.97659 5.10983 4.00188 5.21204H1.77531C1.49587 5.21204 1.22788 5.10468 1.03028 4.91359C0.832687 4.7225 0.72168 4.46332 0.72168 4.19307V1.21453ZM1.69426 1.52806C1.69426 1.31172 1.87581 1.13615 2.09951 1.13615H3.55838C3.78208 1.13615 3.96362 1.31172 3.96362 1.52806V2.62542C3.96362 2.84175 3.78208 3.01733 3.55838 3.01733H2.09951C1.87581 3.01733 1.69426 2.84175 1.69426 2.62542V1.52806ZM7.04347 4.27145C7.17245 4.27145 7.29614 4.321 7.38733 4.4092C7.47853 4.49739 7.52976 4.61701 7.52976 4.74174V4.89851C7.52976 5.51648 6.92676 6.15263 5.90879 6.15263C4.89082 6.15263 4.28782 5.51648 4.28782 4.89851V4.74174C4.28782 4.61701 4.33905 4.49739 4.43025 4.4092C4.52145 4.321 4.64514 4.27145 4.77411 4.27145H7.04347ZM5.90879 2.2335C6.14524 2.2335 6.37201 2.32434 6.5392 2.48604C6.7064 2.64773 6.80033 2.86704 6.80033 3.09571C6.80033 3.32438 6.7064 3.54369 6.5392 3.70538C6.37201 3.86708 6.14524 3.95792 5.90879 3.95792C5.67234 3.95792 5.44558 3.86708 5.27838 3.70538C5.11119 3.54369 5.01726 3.32438 5.01726 3.09571C5.01726 2.86704 5.11119 2.64773 5.27838 2.48604C5.44558 2.32434 5.67234 2.2335 5.90879 2.2335Z" fill="#F4F6F9"/>
</svg>
